<?xml version="1.0" standalone="no"?>
<!DOCTYPE svg PUBLIC "-//W3C//DTD SVG 20010904//EN"
 "http://www.w3.org/TR/2001/REC-SVG-20010904/DTD/svg10.dtd">
<svg version="1.0" xmlns="http://www.w3.org/2000/svg"
 width="244.000000pt" height="93.000000pt" viewBox="0 0 244.000000 93.000000"
 preserveAspectRatio="xMidYMid meet">
<metadata>
Created by potrace 1.16, written by Peter Selinger 2001-2019
</metadata>
<g transform="translate(0.000000,93.000000) scale(0.100000,-0.100000)"
fill="#000000" stroke="none">
<path d="M283 876 c-101 -19 -220 -78 -230 -114 -5 -15 -8 -97 -7 -182 0 -127
5 -170 22 -235 23 -84 82 -218 109 -248 24 -26 137 -57 208 -57 71 0 184 31
208 57 27 31 86 165 108 248 23 87 31 281 16 386 l-8 56 -77 36 c-130 60 -229
75 -349 53z m224 -65 c106 -54 155 -131 161 -252 5 -90 -14 -142 -74 -208 -54
-61 -104 -83 -195 -89 -67 -4 -84 -1 -131 20 -111 51 -171 144 -172 263 0 137
78 241 214 286 44 15 152 4 197 -20z m113 -586 c0 -4 -7 -19 -15 -35 l-16 -30
-208 0 -209 0 -11 31 c-6 18 -11 34 -11 35 0 2 106 4 235 4 129 0 235 -2 235
-5z"/>
<path d="M340 765 l0 -35 -65 0 -65 0 0 -40 0 -40 65 0 65 0 0 -41 c0 -28 -4
-38 -12 -33 -7 4 -8 3 -4 -5 4 -6 11 -9 16 -6 5 3 10 -3 13 -12 2 -10 2 5 -1
32 -6 76 -5 75 -72 75 l-60 0 0 30 0 30 65 0 65 0 0 35 c0 33 2 35 35 35 33 0
35 -2 35 -35 l0 -35 65 0 65 0 0 -30 c0 -29 -1 -29 -62 -32 l-63 -3 -3 -39
c-2 -21 2 -44 9 -50 9 -8 10 -8 5 1 -9 17 42 53 75 53 l28 0 -33 -97 c-30 -89
-35 -98 -59 -101 -19 -2 -27 -9 -27 -23 0 -15 -7 -19 -35 -19 -28 0 -35 4 -35
19 0 14 -8 21 -25 23 -23 3 -30 14 -59 101 l-33 99 31 -5 c17 -2 40 -7 51 -11
13 -5 11 -2 -5 8 -31 19 -94 22 -86 4 2 -7 19 -57 37 -110 28 -87 34 -98 55
-98 17 0 24 -6 24 -20 0 -17 7 -20 45 -20 38 0 45 3 45 20 0 14 7 20 24 20 22
0 28 10 57 98 17 53 34 103 37 110 7 21 -62 14 -92 -9 l-28 -22 4 29 c3 28 5
29 66 32 l62 3 0 39 0 40 -65 0 -65 0 0 35 c0 35 0 35 -45 35 -45 0 -45 0 -45
-35z"/>
<path d="M852 808 c-21 -21 -13 -55 19 -83 25 -20 29 -29 20 -38 -9 -9 -16 -6
-31 13 -23 30 -34 23 -21 -14 8 -20 17 -26 40 -26 63 0 84 66 31 97 -16 9 -30
23 -30 30 0 18 19 16 26 -2 8 -20 24 -19 24 1 0 9 7 14 17 12 14 -3 17 -12 14
-53 -1 -28 -7 -54 -12 -59 -5 -6 -9 -13 -9 -17 0 -10 59 -8 66 2 2 5 10 6 17
3 8 -3 20 10 29 28 l17 33 0 -27 c1 -16 -3 -28 -9 -28 -5 0 -10 -4 -10 -8 0
-5 32 -9 70 -9 65 -1 85 7 60 22 -14 9 -3 25 17 25 11 0 14 -6 9 -24 -5 -22
-3 -23 34 -23 38 0 51 9 31 22 -5 3 -19 35 -31 71 -27 81 -45 81 -74 -1 -26
-74 -50 -81 -54 -16 -2 24 2 49 7 54 18 18 12 27 -17 27 -23 0 -30 -6 -41 -35
-7 -19 -16 -35 -21 -35 -5 0 -14 16 -20 35 l-12 35 -72 0 c-43 0 -77 -5 -84
-12z"/>
<path d="M1310 810 c0 -5 5 -10 10 -10 6 0 10 -24 10 -54 0 -30 -4 -58 -10
-61 -21 -13 -8 -22 30 -22 38 0 51 9 30 22 -5 3 -10 14 -10 23 0 12 8 7 26
-15 23 -29 30 -33 75 -32 47 2 61 10 38 25 -16 10 6 28 26 20 11 -4 14 -12 10
-25 -5 -18 -2 -20 32 -16 51 4 50 4 33 15 -8 5 -24 37 -36 72 -28 86 -45 86
-75 3 -12 -36 -28 -65 -35 -65 -7 0 -22 14 -35 31 l-21 30 26 28 c33 35 33 41
-5 41 -25 0 -29 -3 -25 -18 4 -12 -1 -26 -14 -37 -19 -18 -20 -18 -20 3 0 11
5 24 10 27 22 13 8 25 -30 25 -22 0 -40 -4 -40 -10z"/>
<path d="M1779 801 c-18 -14 -24 -29 -24 -61 0 -32 6 -47 24 -61 32 -27 77
-24 106 6 31 30 32 73 4 109 -25 32 -75 35 -110 7z"/>
<path d="M1915 810 c-3 -5 -1 -10 4 -10 7 0 11 -24 11 -60 0 -33 -4 -60 -10
-60 -5 0 -10 -4 -10 -9 0 -11 289 -11 296 1 3 4 0 8 -5 8 -6 0 -11 7 -11 16 0
12 6 10 21 -10 20 -26 79 -38 79 -16 0 6 -4 10 -9 10 -6 0 -22 16 -38 36 l-27
36 31 28 c35 32 33 40 -9 40 -24 0 -28 -3 -23 -19 3 -11 -1 -24 -11 -32 -16
-13 -17 -11 -11 18 l6 32 -79 0 c-44 0 -80 -4 -80 -9 0 -6 5 -10 10 -10 14 0
13 -107 -2 -116 -8 -5 -9 0 -6 14 7 25 -16 31 -26 7 -3 -8 -13 -15 -22 -15
-14 0 -16 10 -12 65 l4 65 -32 0 c-18 0 -36 -4 -39 -10z"/>
<path d="M840 580 c0 -5 5 -10 10 -10 6 0 10 -33 10 -80 0 -47 -4 -80 -10 -80
-5 0 -10 -6 -10 -14 0 -10 15 -14 55 -14 41 0 55 3 55 14 0 8 -7 14 -15 14
-10 0 -15 10 -15 30 0 23 4 30 20 30 11 0 23 -7 26 -15 11 -28 24 -15 24 25 0
38 -12 52 -25 30 -3 -5 -15 -10 -26 -10 -14 0 -19 7 -19 30 0 25 4 30 25 30
13 0 28 -8 34 -17 11 -21 16 -17 25 20 l6 27 -85 0 c-50 0 -85 -4 -85 -10z"/>
<path d="M1020 580 c0 -5 5 -10 10 -10 6 0 10 -33 10 -80 0 -47 -4 -80 -10
-80 -5 0 -10 -7 -10 -15 0 -11 12 -15 50 -15 38 0 50 4 50 15 0 8 -4 15 -10
15 -5 0 -10 12 -9 28 0 25 1 25 12 8 36 -56 43 -60 111 -63 52 -3 66 0 66 11
0 8 -5 16 -11 18 -19 6 3 38 26 38 23 0 45 -32 26 -38 -6 -2 -11 -9 -11 -16 0
-9 17 -13 55 -13 40 0 55 4 55 13 0 8 -6 14 -14 14 -9 0 -27 34 -47 90 -42
120 -58 120 -103 1 -17 -46 -36 -86 -43 -88 -6 -2 -23 12 -38 31 -25 33 -26
37 -11 51 23 23 21 72 -3 85 -25 13 -151 13 -151 0z"/>
<path d="M1427 583 c-11 -10 -8 -63 3 -63 5 0 14 9 20 20 6 11 17 20 25 20 12
0 15 -16 15 -74 0 -66 -2 -74 -21 -79 -38 -10 -10 -26 46 -26 59 0 77 12 45
29 -17 9 -20 21 -20 80 0 62 2 70 19 70 10 0 21 -9 24 -20 8 -31 27 -24 27 10
0 28 2 30 20 20 17 -9 20 -21 20 -85 0 -60 -3 -75 -15 -75 -8 0 -15 -6 -15
-13 0 -10 21 -14 84 -15 l84 -1 11 31 c14 39 14 38 -2 38 -7 0 -18 -9 -25 -20
-7 -11 -23 -20 -37 -20 -21 0 -25 5 -25 30 0 23 4 30 20 30 11 0 20 -4 20 -10
0 -5 5 -10 10 -10 6 0 10 18 10 40 0 22 5 40 10 40 6 0 10 14 10 30 l0 30
-178 0 c-98 0 -182 -3 -185 -7z"/>
<path d="M1810 581 c0 -5 7 -11 15 -15 11 -4 15 -22 15 -76 0 -54 -4 -72 -15
-76 -8 -4 -15 -12 -15 -19 0 -10 16 -14 55 -14 41 0 55 4 55 15 0 8 -7 14 -15
14 -10 0 -15 10 -15 32 l0 33 26 -38 c30 -45 57 -57 125 -57 37 0 49 4 49 15
0 8 -6 15 -14 15 -9 0 -12 7 -9 20 4 13 14 20 29 20 28 0 41 -24 25 -44 -17
-20 -6 -23 91 -24 89 -1 115 8 78 28 -16 9 -20 21 -20 62 l0 51 52 -71 c72
-100 85 -97 90 20 2 61 7 93 16 96 28 9 9 22 -33 22 -44 0 -60 -12 -31 -23 15
-6 31 -66 24 -88 -2 -7 -24 15 -49 49 -42 58 -46 61 -86 62 -42 0 -57 -12 -28
-24 12 -4 15 -23 15 -81 0 -73 -1 -76 -22 -73 -18 2 -28 19 -54 88 -23 65 -36
86 -51 88 -17 3 -25 -11 -52 -88 -18 -49 -38 -90 -45 -90 -7 0 -23 14 -35 31
-23 30 -23 32 -5 64 17 31 17 35 1 59 -16 24 -23 26 -92 26 -41 0 -75 -4 -75
-9z"/>
<path d="M926 298 c12 -72 14 -78 41 -84 37 -10 57 7 63 51 7 54 30 58 30 6 0
-23 -5 -41 -11 -41 -5 0 -8 -4 -5 -8 7 -12 66 -13 66 -1 0 5 -4 9 -10 9 -5 0
-10 7 -10 16 0 12 4 11 18 -7 12 -14 32 -23 56 -25 33 -3 36 -1 31 16 -5 14
-2 20 10 20 10 0 15 -7 13 -17 -3 -16 8 -18 100 -19 57 0 105 3 108 8 3 4 0 8
-7 8 -10 0 -10 3 -2 11 14 14 34 3 27 -15 -3 -9 5 -13 26 -13 17 0 29 3 27 6
-6 11 -34 76 -40 93 -11 32 -33 19 -51 -32 -10 -27 -21 -50 -25 -50 -3 0 -7
16 -8 36 -3 58 -8 64 -56 64 l-44 0 5 -50 c3 -31 1 -50 -6 -50 -6 0 -18 23
-27 50 -9 28 -22 50 -29 50 -8 0 -21 -20 -30 -45 -19 -47 -25 -52 -43 -34 -9
9 -9 16 0 29 20 34 -7 50 -84 50 -39 0 -69 -4 -69 -10 0 -5 5 -10 10 -10 6 0
10 -16 10 -35 0 -29 -4 -35 -21 -35 -20 0 -21 4 -17 45 5 44 5 45 -23 45 -27
0 -28 -2 -23 -32z"/>
<path d="M830 140 c0 -11 5 -20 10 -20 6 0 10 5 10 10 0 6 5 10 11 10 12 0 8
-51 -6 -82 -6 -15 -2 -18 22 -18 30 0 30 0 26 53 -4 40 -2 49 7 37 9 -11 13
-12 17 -2 2 6 9 12 14 12 12 0 12 -67 -1 -75 -28 -17 1 -23 110 -22 114 1 120
2 114 20 -4 14 -2 18 7 15 8 -3 13 -11 12 -19 -2 -11 19 -14 103 -16 102 -2
105 -1 99 18 -7 21 -7 21 13 1 16 -16 34 -20 108 -20 107 -1 134 12 134 61 0
50 -14 57 -111 57 l-86 0 5 -52 c4 -45 2 -51 -9 -40 -8 7 -14 30 -14 50 l0 37
-96 3 -96 3 5 -53 c5 -61 -9 -58 -31 7 -18 52 -37 51 -55 -3 -17 -52 -37 -50
-37 4 0 39 0 39 -41 42 l-41 3 4 -53 c2 -32 0 -46 -5 -35 -7 17 -9 17 -21 3
-14 -16 -31 -13 -31 6 0 5 6 8 14 5 12 -5 26 29 26 64 0 5 -43 9 -95 9 -88 0
-95 -1 -95 -20z"/>
<path d="M1830 115 c-7 -25 -17 -48 -21 -51 -18 -11 -8 -24 17 -24 21 0 24 4
19 20 -4 11 -2 20 4 20 6 0 11 -8 11 -19 0 -16 9 -18 89 -17 49 1 93 4 97 9 4
4 2 7 -6 7 -9 0 -11 13 -8 50 l5 51 -61 -3 -61 -3 -1 -43 c0 -23 -3 -44 -6
-47 -2 -2 -12 18 -22 45 -10 28 -24 50 -31 50 -7 0 -18 -20 -25 -45z"/>
</g>
</svg>
